<?xml version="1.0" encoding="UTF-8" standalone="no"?>
<!DOCTYPE svg PUBLIC "-//W3C//DTD SVG 1.1//EN" "http://www.w3.org/Graphics/SVG/1.1/DTD/svg11.dtd">
<svg width="100%" height="100%" viewBox="0 0 208 208" version="1.1" xmlns="http://www.w3.org/2000/svg" xmlns:xlink="http://www.w3.org/1999/xlink" xml:space="preserve" xmlns:serif="http://www.serif.com/" style="fill-rule:evenodd;clip-rule:evenodd;stroke-linejoin:round;stroke-miterlimit:2;">
    <g transform="matrix(1,0,0,1,304.085035,-343.494201)">
        <g transform="matrix(4.166667,0,0,4.166667,-96.405868,343.494201)">
            <rect x="-49.843" y="0" width="49.843" height="49.843" style="fill:rgb(237,21,82);fill-rule:nonzero;"/>
        </g>
        <g transform="matrix(4.166667,0,0,4.166667,-169.699201,401.565035)">
            <path d="M0,13.449C-1.472,12.616 -2.933,11.762 -4.468,10.873C-2.949,9.996 -1.526,9.161 -0.084,8.36C0.09,8.263 0.414,8.267 0.59,8.366C2.032,9.167 3.455,10.002 4.964,10.874C3.429,11.762 1.965,12.617 0.488,13.451C0.363,13.523 0.126,13.52 0,13.449M-7.917,8.873C-9.37,8.051 -10.813,7.212 -12.363,6.317C-10.796,5.411 -9.33,4.559 -7.855,3.722C-7.75,3.662 -7.551,3.658 -7.447,3.718C-5.972,4.554 -4.506,5.407 -2.933,6.316C-4.503,7.224 -5.963,8.077 -7.437,8.909C-7.555,8.976 -7.787,8.946 -7.917,8.873M-15.358,13.479C-15.474,13.544 -15.708,13.497 -15.84,13.422C-17.294,12.595 -18.739,11.753 -20.255,10.875C-18.732,9.995 -17.29,9.15 -15.831,8.335C-15.675,8.248 -15.382,8.262 -15.222,8.351C-13.782,9.156 -12.358,9.988 -10.821,10.874C-12.386,11.778 -13.866,12.64 -15.358,13.479M11.348,10.861C8.693,9.343 6.106,7.865 3.414,6.326C5.444,5.148 7.381,4.024 9.355,2.878C8.803,1.926 8.295,1.048 7.771,0.142C5.378,1.522 3.08,2.853 0.772,4.167C0.559,4.288 0.211,4.426 0.046,4.336C-1.437,3.526 -2.893,2.666 -4.468,1.757C-3.503,1.199 -2.657,0.721 -1.825,0.22C-1.646,0.113 -1.39,-0.072 -1.384,-0.23C-1.346,-1.341 -1.364,-2.453 -1.364,-3.697C-2.991,-2.763 -4.478,-1.91 -6.096,-0.981L-6.096,-8.161L-9.261,-8.161L-9.261,-1.016C-10.864,-1.936 -12.35,-2.788 -13.935,-3.697C-13.935,-2.595 -13.905,-1.642 -13.947,-0.692C-13.97,-0.189 -13.787,0.075 -13.353,0.303C-12.521,0.74 -11.725,1.241 -10.832,1.763C-12.319,2.621 -13.695,3.394 -15.044,4.21C-15.426,4.441 -15.698,4.408 -16.061,4.193C-17.612,3.271 -19.181,2.377 -20.745,1.476C-21.498,1.041 -22.255,0.613 -23.07,0.148C-23.61,1.087 -24.117,1.967 -24.644,2.882C-22.655,4.036 -20.727,5.157 -18.727,6.318C-21.393,7.865 -23.941,9.343 -26.591,10.881C-23.933,12.419 -21.387,13.892 -18.724,15.434C-20.759,16.616 -22.677,17.729 -24.644,18.87C-24.109,19.797 -23.6,20.679 -23.072,21.596L-7.622,12.629L7.77,21.61C8.311,20.675 8.809,19.813 9.353,18.87C7.36,17.714 5.443,16.602 3.425,15.431C6.139,13.866 8.725,12.374 11.348,10.861" style="fill:white;fill-rule:nonzero;"/>
        </g>
        <g transform="matrix(-4.166667,0,0,4.166667,-159.238785,408.897118)">
            <rect x="17.909" y="13.674" width="3.325" height="11.877" style="fill:white;"/>
        </g>
        <g transform="matrix(-4.166667,0,0,4.166667,-2.388785,408.897118)">
            <rect x="36.731" y="13.674" width="3.325" height="11.877" style="fill:white;"/>
        </g>
        <g transform="matrix(-4.166667,0,0,4.166667,-80.813785,433.642951)">
            <rect x="27.32" y="13.674" width="3.325" height="5.938" style="fill:white;"/>
        </g>
    </g>
</svg>
