<?xml version="1.0" encoding="UTF-8" standalone="no"?>
<!DOCTYPE svg PUBLIC "-//W3C//DTD SVG 1.1//EN" "http://www.w3.org/Graphics/SVG/1.1/DTD/svg11.dtd">
<svg width="100%" height="100%" viewBox="0 0 834 250" version="1.1" xmlns="http://www.w3.org/2000/svg" xmlns:xlink="http://www.w3.org/1999/xlink" xml:space="preserve" xmlns:serif="http://www.serif.com/" style="fill-rule:evenodd;clip-rule:evenodd;stroke-linejoin:round;stroke-miterlimit:2;">
    <g id="Page-1" serif:id="Page 1" transform="matrix(4.166667,0,0,4.166667,0,0)">
        <rect x="0" y="0" width="200" height="60" style="fill:none;"/>
        <g id="Layer-1" serif:id="Layer 1">
            <g transform="matrix(1,0,0,1,54.2229,5.0783)">
                <rect x="-49.843" y="0" width="49.843" height="49.843" style="fill:rgb(237,21,82);fill-rule:nonzero;"/>
            </g>
            <g transform="matrix(1,0,0,1,36.6325,19.0153)">
                <path d="M0,13.449C-1.472,12.616 -2.933,11.762 -4.468,10.873C-2.949,9.996 -1.526,9.161 -0.084,8.36C0.09,8.263 0.414,8.267 0.59,8.366C2.032,9.167 3.455,10.002 4.964,10.874C3.429,11.762 1.965,12.617 0.488,13.451C0.363,13.523 0.126,13.52 0,13.449M-7.917,8.873C-9.37,8.051 -10.813,7.212 -12.363,6.317C-10.796,5.411 -9.33,4.559 -7.855,3.722C-7.75,3.662 -7.551,3.658 -7.447,3.718C-5.972,4.554 -4.506,5.407 -2.933,6.316C-4.503,7.224 -5.963,8.077 -7.437,8.909C-7.555,8.976 -7.787,8.946 -7.917,8.873M-15.358,13.479C-15.474,13.544 -15.708,13.497 -15.84,13.422C-17.294,12.595 -18.739,11.753 -20.255,10.875C-18.732,9.995 -17.29,9.15 -15.831,8.335C-15.675,8.248 -15.382,8.262 -15.222,8.351C-13.782,9.156 -12.358,9.988 -10.821,10.874C-12.386,11.778 -13.866,12.64 -15.358,13.479M11.348,10.861C8.693,9.343 6.106,7.865 3.414,6.326C5.444,5.148 7.381,4.024 9.355,2.878C8.803,1.926 8.295,1.048 7.771,0.142C5.378,1.522 3.08,2.853 0.772,4.167C0.559,4.288 0.211,4.426 0.046,4.336C-1.437,3.526 -2.893,2.666 -4.468,1.757C-3.503,1.199 -2.657,0.721 -1.825,0.22C-1.646,0.113 -1.39,-0.072 -1.384,-0.23C-1.346,-1.341 -1.364,-2.453 -1.364,-3.697C-2.991,-2.763 -4.478,-1.91 -6.096,-0.981L-6.096,-8.161L-9.261,-8.161L-9.261,-1.016C-10.864,-1.936 -12.35,-2.788 -13.935,-3.697C-13.935,-2.595 -13.905,-1.642 -13.947,-0.692C-13.97,-0.189 -13.787,0.075 -13.353,0.303C-12.521,0.74 -11.725,1.241 -10.832,1.763C-12.319,2.621 -13.695,3.394 -15.044,4.21C-15.426,4.441 -15.698,4.408 -16.061,4.193C-17.612,3.271 -19.181,2.377 -20.745,1.476C-21.498,1.041 -22.255,0.613 -23.07,0.148C-23.61,1.087 -24.117,1.967 -24.644,2.882C-22.655,4.036 -20.727,5.157 -18.727,6.318C-21.393,7.865 -23.941,9.343 -26.591,10.881C-23.933,12.419 -21.387,13.892 -18.724,15.434C-20.759,16.616 -22.677,17.729 -24.644,18.87C-24.109,19.797 -23.6,20.679 -23.072,21.596L-7.622,12.629L7.77,21.61C8.311,20.675 8.809,19.813 9.353,18.87C7.36,17.714 5.443,16.602 3.425,15.431C6.139,13.866 8.725,12.374 11.348,10.861" style="fill:white;fill-rule:nonzero;"/>
            </g>
            <g transform="matrix(-1,0,0,1,39.143,20.775)">
                <rect x="17.909" y="13.674" width="3.325" height="11.877" style="fill:white;"/>
            </g>
            <g transform="matrix(-1,0,0,1,76.787,20.775)">
                <rect x="36.731" y="13.674" width="3.325" height="11.877" style="fill:white;"/>
            </g>
            <g transform="matrix(-1,0,0,1,57.965,26.714)">
                <rect x="27.32" y="13.674" width="3.325" height="5.938" style="fill:white;"/>
            </g>
            <g transform="matrix(1,0,0,1,73.2278,28.6479)">
                <path d="M0,-11.689C-0.021,-11.14 -0.03,-10.485 -0.03,-9.725L-0.03,-7.286C-0.03,-6.314 -0.021,-5.174 0,-3.865C0.317,-3.907 0.598,-3.997 0.84,-4.134C1.083,-4.272 1.284,-4.488 1.442,-4.784C1.601,-5.079 1.716,-5.469 1.79,-5.956C1.864,-6.441 1.901,-7.054 1.901,-7.793C1.901,-9.228 1.737,-10.248 1.41,-10.85C1.083,-11.451 0.613,-11.731 0,-11.689M-5.638,5.131C-5.616,3.441 -5.595,1.488 -5.574,-0.729C-5.554,-2.63 -5.538,-4.915 -5.526,-7.586C-5.517,-10.258 -5.511,-13.262 -5.511,-16.598C-4.878,-16.662 -4.271,-16.714 -3.689,-16.757C-3.109,-16.799 -2.555,-16.82 -2.026,-16.82C1.415,-16.82 3.902,-16.097 5.433,-14.65C6.964,-13.204 7.729,-10.981 7.729,-7.983C7.729,-5.343 7.063,-3.263 5.733,-1.743C4.403,-0.222 2.523,0.559 0.096,0.601C0.116,1.319 0.133,2.042 0.144,2.77C0.153,3.499 0.18,4.275 0.223,5.1C-0.264,5.078 -0.812,5.067 -1.425,5.067C-1.953,5.067 -2.576,5.073 -3.294,5.083C-4.012,5.095 -4.793,5.11 -5.638,5.131" style="fill:rgb(5,6,6);fill-rule:nonzero;"/>
            </g>
            <g transform="matrix(1,0,0,1,88.6858,15.8184)">
                <path d="M0,14.413C0.146,14.413 0.279,14.339 0.396,14.191C0.512,14.044 0.606,13.726 0.681,13.241C0.755,12.755 0.808,12.038 0.839,11.087C0.871,10.137 0.887,8.849 0.887,7.223C0.887,5.682 0.871,4.446 0.839,3.517C0.808,2.588 0.755,1.88 0.681,1.394C0.606,0.909 0.507,0.586 0.38,0.428C0.254,0.269 0.105,0.191 -0.063,0.191C-0.274,0.191 -0.443,0.28 -0.57,0.46C-0.697,0.64 -0.792,0.994 -0.855,1.521C-0.919,2.049 -0.962,2.788 -0.982,3.738C-1.004,4.688 -1.015,5.923 -1.015,7.444C-1.015,8.986 -0.993,10.216 -0.95,11.135C-0.908,12.053 -0.851,12.755 -0.776,13.241C-0.702,13.726 -0.602,14.044 -0.476,14.191C-0.349,14.339 -0.19,14.413 0,14.413M-0.063,18.752C-1.373,18.752 -2.482,18.51 -3.39,18.023C-4.298,17.538 -5.036,16.82 -5.607,15.87C-6.177,14.92 -6.595,13.748 -6.858,12.354C-7.122,10.96 -7.254,9.345 -7.254,7.508C-7.254,5.754 -7.148,4.156 -6.937,2.708C-6.727,1.263 -6.352,0.016 -5.812,-1.029C-5.274,-2.074 -4.546,-2.887 -3.627,-3.468C-2.708,-4.048 -1.531,-4.339 -0.095,-4.339C1.362,-4.339 2.561,-4.07 3.5,-3.531C4.439,-2.993 5.179,-2.216 5.717,-1.203C6.256,-0.19 6.625,1.045 6.826,2.502C7.025,3.959 7.127,5.618 7.127,7.476C7.105,9.545 6.947,11.299 6.652,12.733C6.355,14.17 5.917,15.331 5.337,16.219C4.756,17.105 4.018,17.749 3.119,18.15C2.223,18.551 1.16,18.752 -0.063,18.752" style="fill:rgb(5,6,6);fill-rule:nonzero;"/>
            </g>
            <g transform="matrix(1,0,0,1,107.8176,11.7634)">
                <path d="M0,23.156C-0.169,20.326 -0.333,17.803 -0.491,15.586C-0.65,13.368 -0.804,11.447 -0.951,9.82C-1.247,11.996 -1.494,13.827 -1.694,15.316C-1.896,16.805 -2.049,18.013 -2.154,18.943C-2.281,20.02 -2.387,20.886 -2.471,21.54C-3.929,21.456 -5.115,21.404 -6.035,21.382C-6.953,21.361 -7.687,21.34 -8.235,21.318L-9.725,21.318C-9.957,17.919 -10.184,14.947 -10.405,12.402C-10.628,9.857 -10.822,7.709 -10.991,5.956C-11.203,3.928 -11.383,2.176 -11.53,0.698C-10.728,0.698 -9.952,0.693 -9.201,0.682C-8.453,0.672 -7.792,0.656 -7.222,0.635C-6.547,0.614 -5.923,0.593 -5.354,0.572C-5.354,3.422 -5.338,6.062 -5.306,8.49C-5.273,10.919 -5.237,13.009 -5.195,14.761C-4.794,11.868 -4.472,9.562 -4.229,7.841C-3.986,6.119 -3.791,4.805 -3.643,3.897C-3.474,2.841 -3.357,2.113 -3.294,1.711C-2.514,1.691 -1.816,1.685 -1.204,1.696C-0.592,1.706 -0.074,1.722 0.348,1.743C0.854,1.764 1.299,1.786 1.679,1.806C2.079,5.608 2.439,8.786 2.756,11.341C3.072,13.896 3.325,15.86 3.516,17.232C3.558,13.854 3.574,11.067 3.563,8.87C3.553,6.674 3.548,4.911 3.548,3.58C3.526,2.039 3.516,0.836 3.516,-0.031C4.36,0.012 5.151,0.038 5.892,0.049C6.63,0.059 7.274,0.075 7.824,0.096C8.478,0.117 9.079,0.128 9.629,0.128C9.313,3.802 9.048,7.049 8.838,9.868C8.626,12.687 8.446,15.068 8.299,17.01C8.13,19.271 8.003,21.244 7.918,22.933C6.44,23.039 5.194,23.108 4.181,23.14C3.167,23.171 2.354,23.187 1.742,23.187C1.023,23.187 0.443,23.176 0,23.156" style="fill:rgb(5,6,6);fill-rule:nonzero;"/>
            </g>
            <g transform="matrix(1,0,0,1,124.0666,16.1665)">
                <path d="M0,13.748C0.316,13.769 0.581,13.732 0.792,13.637C1.002,13.541 1.177,13.272 1.314,12.829C1.452,12.385 1.552,11.715 1.615,10.817C1.679,9.92 1.71,8.69 1.71,7.127C1.71,5.798 1.679,4.684 1.615,3.786C1.552,2.889 1.446,2.171 1.298,1.632C1.15,1.093 0.955,0.719 0.713,0.508C0.47,0.297 0.168,0.212 -0.19,0.254C-0.19,1.944 -0.18,3.596 -0.159,5.211C-0.138,6.827 -0.116,8.268 -0.095,9.535C-0.074,11.014 -0.042,12.417 0,13.748M-5.828,17.929C-5.808,15.226 -5.797,12.566 -5.797,9.947L-5.797,-4.149C-5.036,-4.275 -4.303,-4.375 -3.596,-4.45C-2.888,-4.523 -2.229,-4.561 -1.616,-4.561C0.138,-4.561 1.615,-4.328 2.818,-3.863C4.022,-3.398 4.999,-2.675 5.749,-1.694C6.498,-0.711 7.042,0.534 7.38,2.044C7.718,3.554 7.887,5.343 7.887,7.413C7.887,9.398 7.687,11.082 7.285,12.465C6.884,13.848 6.292,14.973 5.512,15.838C4.73,16.705 3.764,17.332 2.612,17.723C1.462,18.114 0.138,18.309 -1.362,18.309C-2.692,18.309 -4.181,18.183 -5.828,17.929" style="fill:rgb(5,6,6);fill-rule:nonzero;"/>
            </g>
            <g transform="matrix(1,0,0,1,133.1574,12.0815)">
                <path d="M0,21.792C-0.021,19.956 -0.043,17.896 -0.063,15.616C-0.085,13.652 -0.11,11.34 -0.143,8.679C-0.174,6.018 -0.212,3.083 -0.254,-0.127C0.338,-0.127 1.108,-0.138 2.058,-0.159C2.861,-0.159 3.916,-0.164 5.227,-0.175C6.535,-0.185 8.15,-0.201 10.072,-0.222L10.072,3.119C10.072,3.807 10.094,4.561 10.137,5.384C9.545,5.405 8.964,5.416 8.394,5.416C7.908,5.438 7.396,5.448 6.858,5.448C6.318,5.448 5.838,5.459 5.417,5.479C5.396,5.902 5.391,6.287 5.4,6.635C5.41,6.984 5.417,7.295 5.417,7.57L5.417,8.425C5.543,8.425 5.912,8.43 6.525,8.441C7.137,8.452 8.077,8.436 9.345,8.394L9.345,11.609C9.345,12.253 9.354,12.966 9.376,13.747L8.267,13.747C7.908,13.747 7.496,13.742 7.032,13.731C6.566,13.72 6.071,13.715 5.543,13.715L5.543,14.476C5.543,14.982 5.574,15.658 5.638,16.502C5.976,16.524 6.378,16.545 6.842,16.565C7.223,16.587 7.687,16.613 8.236,16.645C8.783,16.677 9.397,16.703 10.072,16.725C10.052,17.084 10.042,17.527 10.042,18.055C10.021,18.498 10.009,19.048 10.009,19.702L10.009,22.014C9.08,21.993 8.077,21.961 7.001,21.919C6.071,21.898 5.005,21.876 3.802,21.855C2.598,21.835 1.33,21.813 0,21.792" style="fill:rgb(5,6,6);fill-rule:nonzero;"/>
            </g>
            <g transform="matrix(1,0,0,1,149.9758,23.0733)">
                <path d="M0,-0.191C0.613,-0.212 1.094,-0.464 1.442,-0.951C1.79,-1.437 1.964,-2.25 1.964,-3.39C1.964,-4.509 1.801,-5.39 1.474,-6.035C1.146,-6.679 0.624,-6.97 -0.095,-6.906C-0.095,-6.061 -0.089,-5.243 -0.078,-4.451C-0.068,-3.659 -0.052,-2.947 -0.03,-2.313C-0.01,-1.573 0,-0.866 0,-0.191M2.503,11.593L1.964,9.438C1.795,8.742 1.585,7.903 1.331,6.92C1.078,5.939 0.782,4.835 0.444,3.61C0.423,3.631 0.381,3.642 0.317,3.642L0,3.642L0.128,10.452L-3.389,10.452C-4.106,10.452 -4.889,10.462 -5.732,10.484C-5.712,8.795 -5.69,6.841 -5.669,4.624C-5.648,2.724 -5.633,0.443 -5.621,-2.218C-5.611,-4.878 -5.605,-7.888 -5.605,-11.245C-4.655,-11.414 -3.759,-11.546 -2.913,-11.641C-2.069,-11.736 -1.277,-11.784 -0.537,-11.784C2.397,-11.784 4.547,-11.113 5.908,-9.773C7.271,-8.432 7.951,-6.441 7.951,-3.802C7.951,-2.408 7.713,-1.246 7.238,-0.318C6.764,0.612 6.114,1.372 5.29,1.963C5.417,2.386 5.733,3.362 6.24,4.893C6.747,6.424 7.486,8.531 8.458,11.212C8.015,11.233 7.497,11.265 6.905,11.307C6.398,11.349 5.775,11.396 5.037,11.45C4.298,11.502 3.453,11.55 2.503,11.593" style="fill:rgb(5,6,6);fill-rule:nonzero;"/>
            </g>
            <g transform="matrix(1,0,0,1,159.0354,11.9549)">
                <path d="M0,22.046L0,15.648C0,13.662 -0.011,11.339 -0.031,8.678C-0.053,6.017 -0.084,3.135 -0.126,0.031L3.12,0.031C3.828,0.031 4.657,0.021 5.607,0C5.607,2.09 5.617,4.339 5.639,6.746C5.659,8.795 5.675,11.139 5.686,13.778C5.696,16.418 5.723,19.174 5.766,22.046L0,22.046Z" style="fill:rgb(5,6,6);fill-rule:nonzero;"/>
            </g>
            <g transform="matrix(1,0,0,1,166.3205,12.5249)">
                <path d="M0,20.874C0.021,19.311 0.032,17.484 0.032,15.394C0.032,13.599 0.021,11.44 0,8.916C-0.021,6.393 -0.053,3.526 -0.095,0.317C0.369,0.295 0.876,0.264 1.426,0.222C1.911,0.179 2.481,0.153 3.137,0.142C3.791,0.132 4.508,0.106 5.289,0.063C5.564,0.887 5.892,1.837 6.271,2.914C6.589,3.844 6.979,4.973 7.443,6.303C7.908,7.634 8.446,9.143 9.059,10.832C8.996,9.545 8.9,7.914 8.774,5.938C8.647,3.965 8.468,1.594 8.235,-1.172C8.637,-1.151 9.102,-1.13 9.63,-1.109C10.072,-1.088 10.611,-1.071 11.245,-1.062C11.878,-1.05 12.596,-1.056 13.398,-1.077C13.42,0.655 13.463,2.65 13.525,4.91C13.567,6.874 13.626,9.244 13.699,12.02C13.773,14.798 13.863,17.96 13.969,21.507C13.631,21.55 13.219,21.602 12.733,21.666C12.312,21.708 11.778,21.765 11.134,21.84C10.49,21.914 9.724,21.982 8.838,22.046C8.521,21.159 8.161,20.145 7.76,19.005C7.401,18.034 6.979,16.888 6.493,15.568C6.008,14.249 5.469,12.787 4.878,11.181C4.921,12.28 4.973,13.621 5.036,15.204C5.101,16.788 5.205,18.709 5.354,20.969C4.931,20.969 4.445,20.958 3.896,20.937C3.432,20.916 2.866,20.9 2.201,20.89C1.536,20.879 0.803,20.874 0,20.874" style="fill:rgb(5,6,6);fill-rule:nonzero;"/>
            </g>
            <g transform="matrix(1,0,0,1,181.6506,12.5249)">
                <path d="M0,20.874C0.021,19.311 0.032,17.484 0.032,15.394C0.032,13.599 0.021,11.44 0,8.916C-0.021,6.393 -0.052,3.526 -0.094,0.317C0.37,0.295 0.877,0.264 1.426,0.222C1.912,0.179 2.481,0.153 3.137,0.142C3.791,0.132 4.509,0.106 5.29,0.063C5.564,0.887 5.892,1.837 6.272,2.914C6.589,3.844 6.979,4.973 7.444,6.303C7.908,7.634 8.447,9.143 9.06,10.832C8.996,9.545 8.901,7.914 8.775,5.938C8.647,3.965 8.469,1.594 8.236,-1.172C8.638,-1.151 9.103,-1.13 9.63,-1.109C10.073,-1.088 10.611,-1.071 11.246,-1.062C11.879,-1.05 12.596,-1.056 13.399,-1.077C13.42,0.655 13.463,2.65 13.526,4.91C13.568,6.874 13.626,9.244 13.7,12.02C13.773,14.798 13.864,17.96 13.97,21.507C13.631,21.55 13.22,21.602 12.734,21.666C12.312,21.708 11.778,21.765 11.134,21.84C10.49,21.914 9.725,21.982 8.838,22.046C8.521,21.159 8.162,20.145 7.761,19.005C7.401,18.034 6.979,16.888 6.494,15.568C6.009,14.249 5.47,12.787 4.878,11.181C4.921,12.28 4.974,13.621 5.037,15.204C5.101,16.788 5.206,18.709 5.354,20.969C4.931,20.969 4.445,20.958 3.896,20.937C3.432,20.916 2.867,20.9 2.202,20.89C1.537,20.879 0.803,20.874 0,20.874" style="fill:rgb(5,6,6);fill-rule:nonzero;"/>
            </g>
            <g transform="matrix(1,0,0,1,91.4504,44.5485)">
                <path d="M0,-0.073C0.235,-0.081 0.421,-0.179 0.555,-0.366C0.689,-0.553 0.757,-0.865 0.757,-1.305C0.757,-1.735 0.693,-2.075 0.567,-2.323C0.44,-2.571 0.24,-2.682 -0.036,-2.658C-0.036,-2.333 -0.034,-2.018 -0.03,-1.713C-0.025,-1.408 -0.02,-1.134 -0.012,-0.89C-0.004,-0.605 0,-0.333 0,-0.073M0.963,4.462L0.757,3.633C0.69,3.365 0.609,3.042 0.512,2.664C0.415,2.286 0.301,1.861 0.171,1.39C0.163,1.398 0.146,1.402 0.123,1.402L0,1.402L0.049,4.024L-1.304,4.024C-1.58,4.024 -1.882,4.028 -2.206,4.036C-2.199,3.385 -2.19,2.634 -2.183,1.78C-2.174,1.049 -2.168,0.17 -2.163,-0.854C-2.159,-1.878 -2.158,-3.036 -2.158,-4.328C-1.792,-4.393 -1.447,-4.444 -1.121,-4.481C-0.797,-4.517 -0.491,-4.535 -0.207,-4.535C0.923,-4.535 1.75,-4.277 2.274,-3.761C2.798,-3.245 3.061,-2.479 3.061,-1.463C3.061,-0.927 2.969,-0.48 2.786,-0.121C2.604,0.236 2.354,0.529 2.036,0.756C2.085,0.918 2.207,1.295 2.402,1.884C2.598,2.473 2.882,3.284 3.256,4.316C3.085,4.323 2.886,4.336 2.658,4.352C2.463,4.369 2.224,4.387 1.938,4.407C1.654,4.428 1.33,4.446 0.963,4.462" style="fill:rgb(5,6,6);fill-rule:nonzero;"/>
            </g>
            <g transform="matrix(1,0,0,1,94.9006,39.6224)">
                <path d="M0,9.108L0,7.706C0,7.218 -0.002,6.587 -0.006,5.81C-0.01,5.034 -0.021,4.081 -0.036,2.951L1.158,2.951C1.419,2.951 1.731,2.947 2.098,2.939L2.098,4.524C2.098,5.044 2.102,5.686 2.109,6.45C2.117,7.214 2.13,8.096 2.146,9.096L1.537,9.096C1.35,9.096 1.124,9.098 0.86,9.102C0.596,9.106 0.31,9.108 0,9.108M1.062,2.487C0.622,2.487 0.293,2.376 0.074,2.153C-0.146,1.929 -0.256,1.61 -0.256,1.195C-0.256,0.814 -0.141,0.519 0.092,0.311C0.323,0.105 0.646,0 1.062,0C1.476,0 1.788,0.118 2,0.354C2.211,0.59 2.316,0.879 2.316,1.219C2.316,1.577 2.213,1.878 2.006,2.122C1.798,2.366 1.483,2.487 1.062,2.487" style="fill:rgb(5,6,6);fill-rule:nonzero;"/>
            </g>
            <g transform="matrix(1,0,0,1,100.0832,41.9285)">
                <path d="M0,5.485C0.04,5.485 0.08,5.467 0.121,5.43C0.162,5.394 0.196,5.313 0.226,5.186C0.253,5.06 0.277,4.881 0.298,4.65C0.318,4.418 0.328,4.107 0.328,3.717C0.328,3.181 0.303,2.78 0.249,2.516C0.196,2.253 0.101,2.12 -0.037,2.12C-0.086,2.12 -0.131,2.147 -0.172,2.199C-0.212,2.253 -0.244,2.342 -0.27,2.467C-0.293,2.593 -0.312,2.768 -0.323,2.992C-0.336,3.215 -0.342,3.498 -0.342,3.839C-0.342,4.424 -0.313,4.845 -0.257,5.101C-0.199,5.357 -0.114,5.485 0,5.485M2.486,7.022L2.036,7.022C1.889,7.022 1.71,7.019 1.499,7.015C1.287,7.011 1.044,7.009 0.768,7.009C0.775,6.928 0.779,6.835 0.779,6.729L0.779,6.399C0.779,6.27 0.783,6.124 0.792,5.961C0.653,6.27 0.463,6.499 0.219,6.649C-0.024,6.8 -0.301,6.875 -0.61,6.875C-0.92,6.875 -1.201,6.816 -1.457,6.698C-1.714,6.58 -1.933,6.389 -2.116,6.125C-2.299,5.861 -2.438,5.522 -2.536,5.107C-2.634,4.693 -2.684,4.189 -2.684,3.595C-2.684,3.164 -2.646,2.768 -2.573,2.406C-2.5,2.045 -2.384,1.732 -2.226,1.468C-2.067,1.204 -1.868,0.999 -1.628,0.852C-1.389,0.706 -1.103,0.633 -0.769,0.633C-0.517,0.633 -0.296,0.693 -0.104,0.816C0.087,0.937 0.252,1.1 0.39,1.303C0.373,0.978 0.357,0.584 0.341,0.12C0.324,-0.343 0.296,-0.891 0.256,-1.525C0.354,-1.517 0.503,-1.513 0.707,-1.513L1.396,-1.513C1.684,-1.513 2.06,-1.521 2.522,-1.537C2.515,-0.773 2.507,0.064 2.499,0.974C2.491,1.755 2.484,2.661 2.48,3.693C2.477,4.726 2.479,5.835 2.486,7.022" style="fill:rgb(5,6,6);fill-rule:nonzero;"/>
            </g>
            <g transform="matrix(1,0,0,1,105.5686,47.4628)">
                <path d="M0,-3.499C-0.121,-3.499 -0.211,-3.418 -0.268,-3.256C-0.324,-3.093 -0.361,-2.768 -0.377,-2.281L-0.018,-2.281C0.092,-2.281 0.208,-2.285 0.33,-2.292C0.338,-2.707 0.313,-3.012 0.257,-3.207C0.199,-3.402 0.114,-3.499 0,-3.499M0.024,1.402C-0.487,1.402 -0.912,1.318 -1.25,1.152C-1.587,0.985 -1.854,0.757 -2.054,0.469C-2.253,0.181 -2.394,-0.159 -2.475,-0.549C-2.556,-0.939 -2.597,-1.354 -2.597,-1.793C-2.597,-2.215 -2.55,-2.616 -2.457,-2.993C-2.363,-3.371 -2.212,-3.703 -2.005,-3.987C-1.798,-4.271 -1.527,-4.496 -1.194,-4.658C-0.861,-4.82 -0.459,-4.901 0.013,-4.901C0.541,-4.901 0.976,-4.808 1.317,-4.621C1.659,-4.434 1.927,-4.176 2.122,-3.847C2.316,-3.518 2.445,-3.132 2.506,-2.689C2.566,-2.246 2.581,-1.764 2.549,-1.244L1.744,-1.244C1.483,-1.244 1.175,-1.242 0.817,-1.238C0.459,-1.233 0.062,-1.228 -0.377,-1.22C-0.361,-0.806 -0.32,-0.517 -0.256,-0.353C-0.191,-0.191 -0.094,-0.11 0.037,-0.11C0.135,-0.11 0.214,-0.161 0.274,-0.263C0.336,-0.364 0.374,-0.545 0.391,-0.806C0.61,-0.806 0.842,-0.801 1.086,-0.793C1.297,-0.785 1.532,-0.778 1.793,-0.774C2.053,-0.77 2.316,-0.765 2.586,-0.756C2.495,-0.057 2.222,0.477 1.763,0.847C1.303,1.217 0.725,1.402 0.024,1.402" style="fill:rgb(5,6,6);fill-rule:nonzero;"/>
            </g>
            <g transform="matrix(1,0,0,1,109.5061,46.3412)">
                <path d="M0,2.462C-0.187,2.462 -0.351,2.428 -0.493,2.359C-0.636,2.29 -0.751,2.198 -0.84,2.084C-0.931,1.971 -0.997,1.839 -1.042,1.688C-1.086,1.538 -1.109,1.381 -1.109,1.219C-1.109,0.837 -1.008,0.538 -0.804,0.323C-0.601,0.107 -0.328,0 0.013,0C0.37,0 0.645,0.118 0.836,0.353C1.027,0.589 1.122,0.877 1.122,1.219C1.122,1.674 1.013,1.995 0.793,2.182C0.573,2.369 0.31,2.462 0,2.462" style="fill:rgb(5,6,6);fill-rule:nonzero;"/>
            </g>
            <g transform="matrix(1,0,0,1,115.7737,40.0858)">
                <path d="M0,8.815C-0.529,8.815 -0.968,8.744 -1.317,8.602C-1.667,8.46 -1.945,8.253 -2.152,7.98C-2.359,7.708 -2.499,7.373 -2.573,6.974C-2.646,6.576 -2.667,6.125 -2.634,5.621C-2.455,5.629 -2.248,5.633 -2.013,5.633C-1.817,5.642 -1.579,5.645 -1.299,5.645L-0.366,5.645C-0.407,6.133 -0.398,6.493 -0.342,6.724C-0.285,6.956 -0.176,7.072 -0.013,7.072C0.101,7.072 0.185,7.023 0.237,6.926C0.29,6.828 0.316,6.649 0.316,6.389C0.316,6.162 0.247,5.957 0.109,5.773C-0.029,5.591 -0.31,5.393 -0.732,5.182C-1.09,5.003 -1.389,4.816 -1.628,4.621C-1.868,4.426 -2.061,4.215 -2.208,3.987C-2.354,3.76 -2.457,3.511 -2.519,3.243C-2.579,2.975 -2.609,2.675 -2.609,2.341C-2.609,1.919 -2.543,1.557 -2.408,1.256C-2.274,0.955 -2.09,0.713 -1.854,0.531C-1.618,0.348 -1.338,0.213 -1.013,0.128C-0.687,0.043 -0.334,0 0.048,0C0.991,0 1.662,0.275 2.06,0.823C2.458,1.372 2.604,2.175 2.499,3.231C2.279,3.215 2.048,3.199 1.804,3.183C1.592,3.166 1.354,3.152 1.091,3.14C0.826,3.128 0.561,3.118 0.292,3.109C0.357,2.589 0.354,2.23 0.286,2.03C0.217,1.831 0.125,1.732 0.012,1.732C-0.199,1.732 -0.306,1.967 -0.306,2.439C-0.306,2.675 -0.242,2.892 -0.116,3.091C0.01,3.29 0.227,3.459 0.536,3.597C0.95,3.784 1.292,3.969 1.561,4.152C1.828,4.335 2.042,4.534 2.2,4.75C2.359,4.964 2.468,5.202 2.529,5.462C2.59,5.723 2.62,6.023 2.62,6.365C2.62,6.804 2.558,7.177 2.432,7.486C2.306,7.795 2.127,8.047 1.896,8.242C1.664,8.437 1.388,8.581 1.066,8.675C0.745,8.768 0.39,8.815 0,8.815" style="fill:rgb(5,6,6);fill-rule:nonzero;"/>
            </g>
            <g transform="matrix(1,0,0,1,120.8576,40.4759)">
                <path d="M0,8.047C-0.708,8.023 -1.24,8.011 -1.598,8.011L-2.146,8.011C-2.138,6.613 -2.132,5.411 -2.128,4.408C-2.124,3.404 -2.126,2.573 -2.134,1.914C-2.142,1.151 -2.15,0.513 -2.158,0C-1.801,0.017 -1.49,0.026 -1.226,0.031C-0.961,0.035 -0.735,0.041 -0.549,0.049C-0.338,0.058 -0.155,0.061 0,0.061C-0.017,1.565 -0.026,2.827 -0.03,3.847C-0.034,4.867 -0.033,5.686 -0.024,6.304C-0.024,7.035 -0.017,7.616 0,8.047" style="fill:rgb(5,6,6);fill-rule:nonzero;"/>
            </g>
            <g transform="matrix(1,0,0,1,123.8195,47.4628)">
                <path d="M0,-3.499C-0.122,-3.499 -0.211,-3.418 -0.269,-3.256C-0.325,-3.093 -0.362,-2.768 -0.378,-2.281L-0.019,-2.281C0.092,-2.281 0.207,-2.285 0.329,-2.292C0.338,-2.707 0.312,-3.012 0.257,-3.207C0.199,-3.402 0.113,-3.499 0,-3.499M0.024,1.402C-0.487,1.402 -0.912,1.318 -1.25,1.152C-1.587,0.985 -1.855,0.757 -2.055,0.469C-2.254,0.181 -2.394,-0.159 -2.475,-0.549C-2.557,-0.939 -2.598,-1.354 -2.598,-1.793C-2.598,-2.215 -2.551,-2.616 -2.457,-2.993C-2.363,-3.371 -2.213,-3.703 -2.005,-3.987C-1.799,-4.271 -1.528,-4.496 -1.195,-4.658C-0.861,-4.82 -0.459,-4.901 0.012,-4.901C0.541,-4.901 0.976,-4.808 1.316,-4.621C1.658,-4.434 1.927,-4.176 2.122,-3.847C2.316,-3.518 2.445,-3.132 2.506,-2.689C2.566,-2.246 2.58,-1.764 2.548,-1.244L1.744,-1.244C1.483,-1.244 1.175,-1.242 0.817,-1.238C0.459,-1.233 0.062,-1.228 -0.378,-1.22C-0.362,-0.806 -0.321,-0.517 -0.256,-0.353C-0.191,-0.191 -0.094,-0.11 0.037,-0.11C0.134,-0.11 0.214,-0.161 0.274,-0.263C0.335,-0.364 0.374,-0.545 0.39,-0.806C0.609,-0.806 0.841,-0.801 1.085,-0.793C1.296,-0.785 1.532,-0.778 1.792,-0.774C2.052,-0.77 2.316,-0.765 2.585,-0.756C2.495,-0.057 2.221,0.477 1.762,0.847C1.303,1.217 0.724,1.402 0.024,1.402" style="fill:rgb(5,6,6);fill-rule:nonzero;"/>
            </g>
            <g transform="matrix(1,0,0,1,129.2453,47.4628)">
                <path d="M0,-3.499C-0.122,-3.499 -0.212,-3.418 -0.269,-3.256C-0.326,-3.093 -0.361,-2.768 -0.378,-2.281L-0.019,-2.281C0.091,-2.281 0.207,-2.285 0.329,-2.292C0.337,-2.707 0.312,-3.012 0.256,-3.207C0.199,-3.402 0.114,-3.499 0,-3.499M0.024,1.402C-0.488,1.402 -0.913,1.318 -1.25,1.152C-1.588,0.985 -1.855,0.757 -2.055,0.469C-2.254,0.181 -2.394,-0.159 -2.475,-0.549C-2.557,-0.939 -2.597,-1.354 -2.597,-1.793C-2.597,-2.215 -2.551,-2.616 -2.457,-2.993C-2.363,-3.371 -2.213,-3.703 -2.006,-3.987C-1.799,-4.271 -1.528,-4.496 -1.195,-4.658C-0.862,-4.82 -0.459,-4.901 0.012,-4.901C0.54,-4.901 0.975,-4.808 1.316,-4.621C1.658,-4.434 1.926,-4.176 2.121,-3.847C2.316,-3.518 2.444,-3.132 2.505,-2.689C2.567,-2.246 2.58,-1.764 2.548,-1.244L1.743,-1.244C1.483,-1.244 1.174,-1.242 0.816,-1.238C0.459,-1.233 0.061,-1.228 -0.378,-1.22C-0.361,-0.806 -0.321,-0.517 -0.256,-0.353C-0.191,-0.191 -0.094,-0.11 0.037,-0.11C0.135,-0.11 0.213,-0.161 0.273,-0.263C0.335,-0.364 0.374,-0.545 0.391,-0.806C0.609,-0.806 0.841,-0.801 1.085,-0.793C1.296,-0.785 1.531,-0.778 1.792,-0.774C2.053,-0.77 2.316,-0.765 2.585,-0.756C2.495,-0.057 2.222,0.477 1.761,0.847C1.302,1.217 0.723,1.402 0.024,1.402" style="fill:rgb(5,6,6);fill-rule:nonzero;"/>
            </g>
            <g transform="matrix(1,0,0,1,134.7443,46.2552)">
                <path d="M0,1.11C0.048,1.11 0.093,1.092 0.134,1.055C0.175,1.018 0.207,0.941 0.23,0.823C0.256,0.706 0.276,0.535 0.292,0.311C0.309,0.087 0.316,-0.215 0.316,-0.598C0.316,-0.922 0.311,-1.19 0.298,-1.402C0.286,-1.614 0.268,-1.78 0.243,-1.902C0.22,-2.023 0.187,-2.107 0.146,-2.151C0.105,-2.197 0.061,-2.219 0.012,-2.219C-0.127,-2.219 -0.218,-2.103 -0.263,-1.871C-0.307,-1.64 -0.33,-1.227 -0.33,-0.634C-0.33,-0.251 -0.323,0.055 -0.312,0.287C-0.299,0.519 -0.28,0.695 -0.256,0.817C-0.232,0.939 -0.199,1.018 -0.158,1.055C-0.118,1.092 -0.066,1.11 0,1.11M-2.549,4.828C-2.532,3.869 -2.522,2.904 -2.518,1.932C-2.515,0.962 -2.516,0.073 -2.524,-0.731C-2.532,-1.666 -2.541,-2.572 -2.549,-3.45C-2.069,-3.434 -1.662,-3.434 -1.329,-3.45C-1.143,-3.45 -0.968,-3.454 -0.805,-3.462C-0.821,-3.243 -0.832,-3.062 -0.836,-2.92C-0.84,-2.778 -0.842,-2.65 -0.842,-2.536C-0.712,-2.877 -0.521,-3.159 -0.269,-3.383C-0.017,-3.607 0.305,-3.718 0.694,-3.718C1.02,-3.718 1.306,-3.637 1.555,-3.475C1.802,-3.311 2.007,-3.089 2.17,-2.804C2.333,-2.519 2.454,-2.18 2.536,-1.786C2.617,-1.392 2.657,-0.963 2.657,-0.5C2.657,0.036 2.61,0.498 2.517,0.884C2.424,1.271 2.296,1.586 2.133,1.829C1.971,2.072 1.78,2.252 1.561,2.365C1.341,2.479 1.105,2.536 0.854,2.536C0.553,2.536 0.292,2.478 0.072,2.36C-0.147,2.241 -0.313,2.077 -0.427,1.866C-0.411,2.45 -0.398,2.93 -0.391,3.304C-0.383,3.678 -0.37,3.979 -0.354,4.206C-0.338,4.475 -0.326,4.677 -0.317,4.816C-0.716,4.8 -1.055,4.792 -1.335,4.792C-1.615,4.792 -1.846,4.796 -2.024,4.804C-2.235,4.812 -2.41,4.82 -2.549,4.828" style="fill:rgb(5,6,6);fill-rule:nonzero;"/>
            </g>
            <g transform="matrix(1,0,0,1,138.7551,46.3412)">
                <path d="M0,2.462C-0.187,2.462 -0.352,2.428 -0.493,2.359C-0.636,2.29 -0.752,2.198 -0.841,2.084C-0.931,1.971 -0.998,1.839 -1.043,1.688C-1.087,1.538 -1.109,1.381 -1.109,1.219C-1.109,0.837 -1.008,0.538 -0.805,0.323C-0.602,0.107 -0.329,0 0.013,0C0.37,0 0.644,0.118 0.835,0.353C1.026,0.589 1.122,0.877 1.122,1.219C1.122,1.674 1.013,1.995 0.792,2.182C0.573,2.369 0.309,2.462 0,2.462" style="fill:rgb(5,6,6);fill-rule:nonzero;"/>
            </g>
            <g transform="matrix(1,0,0,1,144.7658,44.5485)">
                <path d="M0,-0.073C0.235,-0.081 0.421,-0.179 0.555,-0.366C0.688,-0.553 0.755,-0.865 0.755,-1.305C0.755,-1.735 0.693,-2.075 0.566,-2.323C0.44,-2.571 0.239,-2.682 -0.037,-2.658C-0.037,-2.333 -0.035,-2.018 -0.031,-1.713C-0.027,-1.408 -0.021,-1.134 -0.012,-0.89C-0.005,-0.605 0,-0.333 0,-0.073M0.963,4.462L0.755,3.633C0.69,3.365 0.609,3.042 0.512,2.664C0.414,2.286 0.3,1.861 0.171,1.39C0.162,1.398 0.146,1.402 0.121,1.402L0,1.402L0.049,4.024L-1.305,4.024C-1.581,4.024 -1.882,4.028 -2.207,4.036C-2.199,3.385 -2.19,2.634 -2.183,1.78C-2.175,1.049 -2.169,0.17 -2.165,-0.854C-2.16,-1.878 -2.158,-3.036 -2.158,-4.328C-1.792,-4.393 -1.447,-4.444 -1.122,-4.481C-0.797,-4.517 -0.492,-4.535 -0.207,-4.535C0.922,-4.535 1.749,-4.277 2.274,-3.761C2.798,-3.245 3.061,-2.479 3.061,-1.463C3.061,-0.927 2.969,-0.48 2.786,-0.121C2.603,0.236 2.353,0.529 2.036,0.756C2.085,0.918 2.207,1.295 2.402,1.884C2.597,2.473 2.881,3.284 3.256,4.316C3.084,4.323 2.885,4.336 2.658,4.352C2.463,4.369 2.223,4.387 1.938,4.407C1.654,4.428 1.328,4.446 0.963,4.462" style="fill:rgb(5,6,6);fill-rule:nonzero;"/>
            </g>
            <g transform="matrix(1,0,0,1,150.6174,47.4628)">
                <path d="M0,-3.499C-0.122,-3.499 -0.212,-3.418 -0.269,-3.256C-0.325,-3.093 -0.361,-2.768 -0.378,-2.281L-0.019,-2.281C0.091,-2.281 0.207,-2.285 0.329,-2.292C0.337,-2.707 0.312,-3.012 0.256,-3.207C0.198,-3.402 0.113,-3.499 0,-3.499M0.023,1.402C-0.488,1.402 -0.913,1.318 -1.25,1.152C-1.588,0.985 -1.855,0.757 -2.055,0.469C-2.254,0.181 -2.395,-0.159 -2.476,-0.549C-2.557,-0.939 -2.597,-1.354 -2.597,-1.793C-2.597,-2.215 -2.55,-2.616 -2.457,-2.993C-2.363,-3.371 -2.213,-3.703 -2.006,-3.987C-1.798,-4.271 -1.528,-4.496 -1.194,-4.658C-0.861,-4.82 -0.459,-4.901 0.013,-4.901C0.54,-4.901 0.975,-4.808 1.317,-4.621C1.658,-4.434 1.926,-4.176 2.121,-3.847C2.316,-3.518 2.444,-3.132 2.505,-2.689C2.566,-2.246 2.58,-1.764 2.548,-1.244L1.743,-1.244C1.483,-1.244 1.174,-1.242 0.816,-1.238C0.459,-1.233 0.061,-1.228 -0.378,-1.22C-0.361,-0.806 -0.321,-0.517 -0.257,-0.353C-0.191,-0.191 -0.094,-0.11 0.036,-0.11C0.134,-0.11 0.213,-0.161 0.273,-0.263C0.335,-0.364 0.374,-0.545 0.39,-0.806C0.609,-0.806 0.842,-0.801 1.085,-0.793C1.297,-0.785 1.532,-0.778 1.792,-0.774C2.052,-0.77 2.316,-0.765 2.585,-0.756C2.495,-0.057 2.221,0.477 1.762,0.847C1.302,1.217 0.724,1.402 0.023,1.402" style="fill:rgb(5,6,6);fill-rule:nonzero;"/>
            </g>
            <g transform="matrix(1,0,0,1,156.1164,46.2552)">
                <path d="M0,1.11C0.048,1.11 0.094,1.092 0.134,1.055C0.175,1.018 0.207,0.941 0.231,0.823C0.256,0.706 0.276,0.535 0.293,0.311C0.309,0.087 0.316,-0.215 0.316,-0.598C0.316,-0.922 0.311,-1.19 0.299,-1.402C0.286,-1.614 0.268,-1.78 0.243,-1.902C0.22,-2.023 0.187,-2.107 0.146,-2.151C0.105,-2.197 0.061,-2.219 0.012,-2.219C-0.126,-2.219 -0.218,-2.103 -0.263,-1.871C-0.307,-1.64 -0.33,-1.227 -0.33,-0.634C-0.33,-0.251 -0.323,0.055 -0.311,0.287C-0.299,0.519 -0.28,0.695 -0.256,0.817C-0.232,0.939 -0.199,1.018 -0.158,1.055C-0.118,1.092 -0.065,1.11 0,1.11M-2.549,4.828C-2.532,3.869 -2.522,2.904 -2.518,1.932C-2.515,0.962 -2.516,0.073 -2.524,-0.731C-2.532,-1.666 -2.54,-2.572 -2.549,-3.45C-2.069,-3.434 -1.662,-3.434 -1.329,-3.45C-1.143,-3.45 -0.968,-3.454 -0.805,-3.462C-0.821,-3.243 -0.832,-3.062 -0.836,-2.92C-0.84,-2.778 -0.842,-2.65 -0.842,-2.536C-0.712,-2.877 -0.521,-3.159 -0.269,-3.383C-0.017,-3.607 0.305,-3.718 0.694,-3.718C1.02,-3.718 1.306,-3.637 1.555,-3.475C1.802,-3.311 2.007,-3.089 2.171,-2.804C2.333,-2.519 2.454,-2.18 2.536,-1.786C2.617,-1.392 2.657,-0.963 2.657,-0.5C2.657,0.036 2.61,0.498 2.518,0.884C2.424,1.271 2.296,1.586 2.134,1.829C1.971,2.072 1.78,2.252 1.561,2.365C1.341,2.479 1.105,2.536 0.854,2.536C0.553,2.536 0.293,2.478 0.073,2.36C-0.146,2.241 -0.313,2.077 -0.427,1.866C-0.411,2.45 -0.398,2.93 -0.391,3.304C-0.382,3.678 -0.37,3.979 -0.354,4.206C-0.338,4.475 -0.325,4.677 -0.317,4.816C-0.715,4.8 -1.055,4.792 -1.335,4.792C-1.615,4.792 -1.845,4.796 -2.023,4.804C-2.235,4.812 -2.41,4.82 -2.549,4.828" style="fill:rgb(5,6,6);fill-rule:nonzero;"/>
            </g>
            <g transform="matrix(1,0,0,1,161.6154,47.4628)">
                <path d="M0,-3.499C-0.122,-3.499 -0.212,-3.418 -0.269,-3.256C-0.326,-3.093 -0.362,-2.768 -0.378,-2.281L-0.02,-2.281C0.091,-2.281 0.206,-2.285 0.328,-2.292C0.337,-2.707 0.312,-3.012 0.256,-3.207C0.198,-3.402 0.113,-3.499 0,-3.499M0.023,1.402C-0.488,1.402 -0.913,1.318 -1.25,1.152C-1.588,0.985 -1.855,0.757 -2.055,0.469C-2.255,0.181 -2.395,-0.159 -2.476,-0.549C-2.557,-0.939 -2.598,-1.354 -2.598,-1.793C-2.598,-2.215 -2.551,-2.616 -2.457,-2.993C-2.363,-3.371 -2.214,-3.703 -2.006,-3.987C-1.799,-4.271 -1.528,-4.496 -1.195,-4.658C-0.862,-4.82 -0.459,-4.901 0.012,-4.901C0.54,-4.901 0.975,-4.808 1.316,-4.621C1.658,-4.434 1.926,-4.176 2.121,-3.847C2.316,-3.518 2.444,-3.132 2.505,-2.689C2.566,-2.246 2.58,-1.764 2.548,-1.244L1.743,-1.244C1.483,-1.244 1.174,-1.242 0.816,-1.238C0.459,-1.233 0.061,-1.228 -0.378,-1.22C-0.362,-0.806 -0.321,-0.517 -0.257,-0.353C-0.191,-0.191 -0.094,-0.11 0.036,-0.11C0.134,-0.11 0.213,-0.161 0.273,-0.263C0.335,-0.364 0.374,-0.545 0.39,-0.806C0.609,-0.806 0.841,-0.801 1.085,-0.793C1.296,-0.785 1.531,-0.778 1.791,-0.774C2.052,-0.77 2.316,-0.765 2.584,-0.756C2.495,-0.057 2.221,0.477 1.761,0.847C1.302,1.217 0.723,1.402 0.023,1.402" style="fill:rgb(5,6,6);fill-rule:nonzero;"/>
            </g>
            <g transform="matrix(1,0,0,1,167.2717,45.2183)">
                <path d="M0,1.098C0,1.066 -0.002,1.035 -0.006,1.007C-0.01,0.978 -0.013,0.952 -0.013,0.927L-0.013,0.854C-0.321,0.894 -0.53,1 -0.64,1.171C-0.75,1.342 -0.805,1.525 -0.805,1.72C-0.805,1.858 -0.778,1.976 -0.725,2.074C-0.673,2.171 -0.577,2.22 -0.438,2.22C-0.374,2.22 -0.313,2.203 -0.256,2.171C-0.199,2.139 -0.152,2.079 -0.116,1.994C-0.079,1.909 -0.051,1.795 -0.03,1.653C-0.01,1.51 0,1.326 0,1.098M-1.134,3.707C-1.386,3.707 -1.617,3.67 -1.829,3.597C-2.04,3.524 -2.225,3.417 -2.384,3.274C-2.542,3.132 -2.666,2.959 -2.756,2.756C-2.845,2.554 -2.89,2.317 -2.89,2.049C-2.89,1.309 -2.642,0.765 -2.146,0.416C-1.65,0.065 -0.968,-0.101 -0.098,-0.085L-0.098,-0.255C-0.106,-0.597 -0.134,-0.827 -0.183,-0.944C-0.231,-1.062 -0.301,-1.121 -0.391,-1.121C-0.577,-1.121 -0.683,-0.845 -0.707,-0.292C-0.862,-0.284 -1.045,-0.28 -1.256,-0.28C-1.614,-0.263 -2.101,-0.263 -2.719,-0.28C-2.727,-0.605 -2.684,-0.909 -2.591,-1.194C-2.498,-1.479 -2.353,-1.725 -2.158,-1.932C-1.963,-2.139 -1.712,-2.303 -1.402,-2.425C-1.093,-2.548 -0.728,-2.609 -0.306,-2.609C0.094,-2.609 0.437,-2.549 0.726,-2.431C1.014,-2.314 1.252,-2.147 1.438,-1.932C1.626,-1.716 1.766,-1.454 1.859,-1.146C1.952,-0.837 2.004,-0.491 2.012,-0.109C2.02,0.354 2.023,0.805 2.023,1.244L2.023,2.452C2.023,2.874 2.02,3.277 2.012,3.659C1.906,3.666 1.78,3.67 1.634,3.67C1.504,3.67 1.339,3.673 1.14,3.677C0.94,3.681 0.699,3.682 0.415,3.682C0.422,3.61 0.431,3.528 0.438,3.439C0.446,3.366 0.451,3.277 0.451,3.171C0.451,3.065 0.455,2.951 0.463,2.829C0.317,3.171 0.099,3.402 -0.188,3.524C-0.478,3.646 -0.792,3.707 -1.134,3.707" style="fill:rgb(5,6,6);fill-rule:nonzero;"/>
            </g>
            <g transform="matrix(1,0,0,1,169.5637,45.2676)">
                <path d="M0,-0.585C0,-0.951 -0.002,-1.253 -0.006,-1.493C-0.01,-1.733 -0.013,-1.922 -0.013,-2.06C-0.021,-2.223 -0.025,-2.349 -0.025,-2.438C0.081,-2.43 0.183,-2.426 0.28,-2.426L0.561,-2.426C0.561,-2.67 0.562,-2.893 0.566,-3.096C0.57,-3.3 0.573,-3.47 0.573,-3.609C0.573,-3.771 0.577,-3.921 0.585,-4.06C0.976,-4.052 1.302,-4.047 1.566,-4.047L2.206,-4.047C2.401,-4.047 2.56,-4.052 2.682,-4.06C2.674,-3.913 2.67,-3.755 2.67,-3.585C2.67,-3.438 2.668,-3.263 2.664,-3.06C2.66,-2.857 2.657,-2.637 2.657,-2.402L3.596,-2.402C3.588,-2.012 3.584,-1.698 3.584,-1.463L3.584,-0.572L2.646,-0.585C2.646,-0.333 2.647,-0.085 2.651,0.159C2.655,0.402 2.661,0.639 2.67,0.866C2.678,1.223 2.869,1.402 3.243,1.402C3.341,1.402 3.458,1.39 3.596,1.366C3.621,1.992 3.646,2.476 3.67,2.816C3.686,3.012 3.698,3.178 3.706,3.317C3.494,3.365 3.289,3.404 3.09,3.433C2.891,3.461 2.702,3.475 2.523,3.475C2.23,3.475 1.963,3.438 1.719,3.365C1.475,3.292 1.268,3.177 1.097,3.018C0.927,2.859 0.794,2.654 0.701,2.402C0.607,2.15 0.561,1.846 0.561,1.487C0.553,1.122 0.548,0.77 0.548,0.433L0.548,-0.585L0,-0.585Z" style="fill:rgb(5,6,6);fill-rule:nonzero;"/>
            </g>
            <g transform="matrix(1,0,0,1,174.6232,46.3412)">
                <path d="M0,2.462C-0.187,2.462 -0.352,2.428 -0.493,2.359C-0.636,2.29 -0.752,2.198 -0.841,2.084C-0.931,1.971 -0.998,1.839 -1.043,1.688C-1.087,1.538 -1.109,1.381 -1.109,1.219C-1.109,0.837 -1.008,0.538 -0.805,0.323C-0.602,0.107 -0.329,0 0.013,0C0.37,0 0.644,0.118 0.835,0.353C1.026,0.589 1.122,0.877 1.122,1.219C1.122,1.674 1.012,1.995 0.792,2.182C0.573,2.369 0.309,2.462 0,2.462" style="fill:rgb(5,6,6);fill-rule:nonzero;"/>
            </g>
        </g>
    </g>
</svg>
